<svg xmlns="http://www.w3.org/2000/svg" width="32" height="24" fill="none"><rect width="32" height="24" fill="#F6F6FA" rx="4"/><path fill="#319B42" d="m17.681 8.844-1.817 3.914h-.183V8h-2.596v8.002h2.152c.584 0 1.103-.335 1.352-.854l1.828-3.904h.183v4.758h2.596V8H19.01c-.562 0-1.092.336-1.33.844ZM7.972 9.05l-1.07 3.708h-.184L5.637 9.05A1.46 1.46 0 0 0 4.23 8H1.668v8.002h2.595v-4.758h.184l1.492 4.758h1.73l1.493-4.758h.184v4.758h2.595V8H9.378a1.45 1.45 0 0 0-1.406 1.05ZM22.324 11.567v4.435h2.597v-2.596h2.79c1.212 0 2.24-.768 2.619-1.839h-8.006Z"/><path fill="url(#a)" d="M27.636 8h-5.777c.357 1.904 2.023 3.245 4.024 3.245h4.49c.032-.173.054-.367.054-.562C30.427 9.136 29.183 8 27.636 8Z"/><defs><linearGradient id="a" x1="21.859" x2="30.427" y1="9.623" y2="9.623" gradientUnits="userSpaceOnUse"><stop stop-color="#00A3E1"/><stop offset=".304" stop-color="#009ADD"/><stop offset=".799" stop-color="#0082D4"/><stop offset="1" stop-color="#0076CF"/></linearGradient></defs></svg>